<?xml version="1.0" encoding="utf-8" ?>
<svg baseProfile="full" height="470" version="1.1" width="1300" xmlns="http://www.w3.org/2000/svg" xmlns:ev="http://www.w3.org/2001/xml-events" xmlns:xlink="http://www.w3.org/1999/xlink"><defs /><rect fill="#2E86C1" height="80" stroke="black" width="200" x="50" y="50" /><text fill="white" font-size="10px" font-weight="bold" x="60" y="85">Dimension</text><rect fill="#2E86C1" height="80" stroke="black" width="200" x="250" y="50" /><text fill="white" font-size="10px" font-weight="bold" x="260" y="85">Level 1: Initial (Ad-Hoc)</text><rect fill="#2E86C1" height="80" stroke="black" width="200" x="450" y="50" /><text fill="white" font-size="10px" font-weight="bold" x="460" y="85">Level 2: Emerging (Aware)</text><rect fill="#2E86C1" height="80" stroke="black" width="200" x="650" y="50" /><text fill="white" font-size="10px" font-weight="bold" x="660" y="85">Level 3: Defined (Consistent)</text><rect fill="#2E86C1" height="80" stroke="black" width="200" x="850" y="50" /><text fill="white" font-size="10px" font-weight="bold" x="860" y="85">Level 4: Managed (Product Focus)</text><rect fill="#2E86C1" height="80" stroke="black" width="200" x="1050" y="50" /><text fill="white" font-size="10px" font-weight="bold" x="1060" y="85">Level 5: Optimizing (Strategic)</text><rect fill="#D4EFDF" height="80" stroke="black" width="200" x="50" y="130" /><text fill="black" font-size="10px" x="55" y="145">Design &amp; Governance</text><rect fill="#D4EFDF" height="80" stroke="black" width="200" x="250" y="130" /><text fill="black" font-size="10px" x="255" y="145">Ad-hoc Design No</text><text fill="black" font-size="10px" x="255" y="160">Standards</text><rect fill="#D4EFDF" height="80" stroke="black" width="200" x="450" y="130" /><text fill="black" font-size="10px" x="455" y="145">Aware of Stds Basic</text><text fill="black" font-size="10px" x="455" y="160">OAS</text><rect fill="#D4EFDF" height="80" stroke="black" width="200" x="650" y="130" /><text fill="black" font-size="10px" x="655" y="145">Consistent Stds Auto</text><text fill="black" font-size="10px" x="655" y="160">Linting Core Security</text><rect fill="#D4EFDF" height="80" stroke="black" width="200" x="850" y="130" /><text fill="black" font-size="10px" x="855" y="145">Consumer Design</text><text fill="black" font-size="10px" x="855" y="160">Proactive Scan Secure</text><text fill="black" font-size="10px" x="855" y="175">By Design</text><rect fill="#D4EFDF" height="80" stroke="black" width="200" x="1050" y="130" /><text fill="black" font-size="10px" x="1055" y="145">Contributes Stds</text><text fill="black" font-size="10px" x="1055" y="160">Policy Champion Adv</text><text fill="black" font-size="10px" x="1055" y="175">Patterns</text><rect fill="#A9DFBF" height="80" stroke="black" width="200" x="50" y="210" /><text fill="black" font-size="10px" x="55" y="225">Build &amp; Platform Usage</text><rect fill="#A9DFBF" height="80" stroke="black" width="200" x="250" y="210" /><text fill="black" font-size="10px" x="255" y="225">Manual Build/Test</text><text fill="black" font-size="10px" x="255" y="240">Ignore Platform</text><rect fill="#A9DFBF" height="80" stroke="black" width="200" x="450" y="210" /><text fill="black" font-size="10px" x="455" y="225">Basic CI/Test Basic</text><text fill="black" font-size="10px" x="455" y="240">Gateway Use</text><rect fill="#A9DFBF" height="80" stroke="black" width="200" x="650" y="210" /><text fill="black" font-size="10px" x="655" y="225">Uses Templates Good</text><text fill="black" font-size="10px" x="655" y="240">Coverage Core Policies</text><rect fill="#A9DFBF" height="80" stroke="black" width="200" x="850" y="210" /><text fill="black" font-size="10px" x="855" y="225">Full CI/CD Auto Adv.</text><text fill="black" font-size="10px" x="855" y="240">Tests Adv. Platform</text><text fill="black" font-size="10px" x="855" y="255">Use</text><rect fill="#A9DFBF" height="80" stroke="black" width="200" x="1050" y="210" /><text fill="black" font-size="10px" x="1055" y="225">Advanced Testing</text><text fill="black" font-size="10px" x="1055" y="240">Reusable Assets</text><text fill="black" font-size="10px" x="1055" y="255">Platform Expert</text><rect fill="#D4EFDF" height="80" stroke="black" width="200" x="50" y="290" /><text fill="black" font-size="10px" x="55" y="305">API Product &amp;</text><text fill="black" font-size="10px" x="55" y="320">Lifecycle</text><rect fill="#D4EFDF" height="80" stroke="black" width="200" x="250" y="290" /><text fill="black" font-size="10px" x="255" y="305">Tech Task Only No</text><text fill="black" font-size="10px" x="255" y="320">Docs/Life</text><rect fill="#D4EFDF" height="80" stroke="black" width="200" x="450" y="290" /><text fill="black" font-size="10px" x="455" y="305">Basic Docs/Ver</text><text fill="black" font-size="10px" x="455" y="320">Reactive Monitor</text><rect fill="#D4EFDF" height="80" stroke="black" width="200" x="650" y="290" /><text fill="black" font-size="10px" x="655" y="305">Managed Asset Accurate</text><text fill="black" font-size="10px" x="655" y="320">Docs Platform Monitor</text><rect fill="#D4EFDF" height="80" stroke="black" width="200" x="850" y="290" /><text fill="black" font-size="10px" x="855" y="305">API as Product Rich</text><text fill="black" font-size="10px" x="855" y="320">Docs &amp; SLOs Lifecycle</text><text fill="black" font-size="10px" x="855" y="335">Mgmt</text><rect fill="#D4EFDF" height="80" stroke="black" width="200" x="1050" y="290" /><text fill="black" font-size="10px" x="1055" y="305">Strategic Product</text><text fill="black" font-size="10px" x="1055" y="320">Feedback Loop Drives</text><text fill="black" font-size="10px" x="1055" y="335">Reuse</text><rect fill="#A9DFBF" height="80" stroke="black" width="200" x="50" y="370" /><text fill="black" font-size="10px" x="55" y="385">Focus / Next Step:</text><rect fill="#A9DFBF" height="80" stroke="black" width="200" x="250" y="370" /><text fill="black" font-size="10px" x="255" y="385">Learn C4E Basics &amp;</text><text fill="black" font-size="10px" x="255" y="400">Core Standards!</text><rect fill="#A9DFBF" height="80" stroke="black" width="200" x="450" y="370" /><text fill="black" font-size="10px" x="455" y="385">Adopt Standards &amp; Use</text><text fill="black" font-size="10px" x="455" y="400">CI/CD Templates!</text><rect fill="#A9DFBF" height="80" stroke="black" width="200" x="650" y="370" /><text fill="black" font-size="10px" x="655" y="385">Automate Fully &amp;</text><text fill="black" font-size="10px" x="655" y="400">Embrace 'API as</text><text fill="black" font-size="10px" x="655" y="415">Product'!</text><rect fill="#A9DFBF" height="80" stroke="black" width="200" x="850" y="370" /><text fill="black" font-size="10px" x="855" y="385">Optimize Consumer</text><text fill="black" font-size="10px" x="855" y="400">Experience &amp;</text><text fill="black" font-size="10px" x="855" y="415">Contribute Back!</text><rect fill="#A9DFBF" height="80" stroke="black" width="200" x="1050" y="370" /><text fill="black" font-size="10px" x="1055" y="385">Drive API Strategy &amp;</text><text fill="black" font-size="10px" x="1055" y="400">Mentor Others!</text></svg>